<svg width="71" height="70" viewBox="0 0 71 70" fill="none" xmlns="http://www.w3.org/2000/svg">
<path fill-rule="evenodd" clip-rule="evenodd" d="M28.6433 40.708C38.1487 40.708 50.7867 41.7784 50.7867 51.0388C50.7867 60.7936 36.0607 61.3789 29.7441 61.4141L27.4507 61.4141C20.7156 61.3791 6.49999 60.7971 6.49999 51.0971C6.49999 41.3313 21.2259 40.7454 27.5426 40.7102L28.3015 40.708C28.4197 40.708 28.5338 40.708 28.6433 40.708ZM28.6433 45.083C20.5379 45.083 10.875 46.1242 10.875 51.0971C10.875 55.0405 16.8542 57.0413 28.6433 57.0413C40.4325 57.0413 46.4117 55.02 46.4117 51.0388C46.4117 47.0867 40.4325 45.083 28.6433 45.083ZM55.2279 39.3456C63.1204 40.5268 64.7741 44.1814 64.7741 47.0368C64.7741 49.1631 63.8554 52.0418 59.4716 53.7014C59.2179 53.7977 58.9554 53.8443 58.6958 53.8443C57.812 53.8443 56.9808 53.3048 56.6512 52.4327C56.2225 51.3039 56.7912 50.0381 57.9199 49.6123C60.3991 48.6731 60.3991 47.5268 60.3991 47.0368C60.3991 45.3831 58.442 44.2514 54.5833 43.6768C53.3875 43.496 52.562 42.3818 52.7399 41.1889C52.9208 39.9931 54.0554 39.191 55.2279 39.3456ZM28.6433 5.83337C36.9004 5.83337 43.6206 12.5534 43.6206 20.8105C43.6379 24.7888 42.095 28.5455 39.2833 31.3746C36.4775 34.2067 32.7296 35.773 28.7425 35.7875H28.6433C20.3833 35.7875 13.6633 29.0675 13.6633 20.8105C13.6633 12.5534 20.3833 5.83337 28.6433 5.83337ZM49.3155 9.11112C55.0467 10.0503 59.2059 14.9532 59.2059 20.7661C59.1942 26.614 54.828 31.6365 49.0472 32.4474C48.9451 32.462 48.843 32.4678 48.7409 32.4678C47.6676 32.4678 46.7313 31.6774 46.5767 30.5836C46.4105 29.3878 47.2417 28.2795 48.4376 28.1132C52.0776 27.6028 54.8251 24.444 54.8309 20.7632C54.8309 17.1057 52.2117 14.0199 48.6097 13.4307C47.4167 13.2324 46.6088 12.1095 46.8042 10.9165C46.9997 9.72362 48.1284 8.92154 49.3155 9.11112ZM28.6433 10.2084C22.7954 10.2084 18.0383 14.9655 18.0383 20.8105C18.0383 26.6555 22.7954 31.4125 28.6433 31.4125H28.7337C31.5454 31.4009 34.1937 30.2955 36.18 28.2917C38.1692 26.2938 39.2571 23.6367 39.2455 20.8192C39.2455 14.9655 34.4883 10.2084 28.6433 10.2084Z" fill="#FD6F00"/>
</svg>
